<svg id="Layer_3" enable-background="new 0 0 64 64" height="512" viewBox="0 0 64 64" width="512" xmlns="http://www.w3.org/2000/svg"><g><path d="m32 19v-4l-3.248-.433c-.31-1.507-.908-2.908-1.726-4.151l1.994-2.608-2.828-2.828-2.608 1.994c-1.243-.818-2.644-1.415-4.151-1.726l-.433-3.248h-4l-.433 3.248c-1.507.31-2.908.908-4.151 1.726l-2.608-1.995-2.829 2.829 1.994 2.608c-.818 1.243-1.415 2.644-1.726 4.151l-3.247.433v4l3.248.433c.31 1.507.908 2.908 1.726 4.151l-1.994 2.608 2.828 2.828 2.608-1.994c1.243.818 2.644 1.415 4.151 1.726l.433 3.248h4l.433-3.248c1.507-.31 2.908-.908 4.151-1.726l2.608 1.994 2.828-2.828-1.994-2.608c.818-1.243 1.415-2.644 1.726-4.151zm-15 6c-4.418 0-8-3.582-8-8s3.582-8 8-8 8 3.582 8 8-3.582 8-8 8z" fill="#a3a7c6"/><path d="m62 38v-4l-3.248-.433c-.31-1.507-.908-2.908-1.726-4.151l1.994-2.608-2.828-2.828-2.608 1.994c-1.243-.818-2.644-1.415-4.151-1.726l-.433-3.248h-4l-.433 3.248c-1.507.31-2.908.908-4.151 1.726l-2.608-1.994-2.828 2.828 1.994 2.608c-.818 1.243-1.415 2.644-1.726 4.151l-3.248.433v4l3.248.433c.31 1.507.908 2.908 1.726 4.151l-1.994 2.608 2.828 2.828 2.608-1.994c1.243.818 2.644 1.415 4.151 1.726l.433 3.248h4l.433-3.248c1.507-.31 2.908-.908 4.151-1.726l2.608 1.994 2.828-2.828-1.994-2.608c.818-1.243 1.415-2.644 1.726-4.151zm-15 6c-4.418 0-8-3.582-8-8s3.582-8 8-8 8 3.582 8 8-3.582 8-8 8z" fill="#8389b2"/><g fill="#f6b940"><path d="m18 11.184v-2.184h-2v2.184c-1.161.414-2 1.514-2 2.816v1c0 1.654 1.346 3 3 3 .551 0 1 .449 1 1v1c0 .551-.449 1-1 1s-1-.449-1-1v-1h-2v1c0 1.302.839 2.402 2 2.816v2.184h2v-2.184c1.161-.414 2-1.514 2-2.816v-1c0-1.654-1.346-3-3-3-.551 0-1-.449-1-1v-1c0-.551.449-1 1-1s1 .449 1 1v1h2v-1c0-1.302-.839-2.402-2-2.816z"/><path d="m50 34v-1c0-1.302-.839-2.402-2-2.816v-2.184h-2v2.184c-1.161.414-2 1.514-2 2.816v1c0 1.654 1.346 3 3 3 .551 0 1 .449 1 1v1c0 .551-.449 1-1 1s-1-.449-1-1v-1h-2v1c0 1.302.839 2.402 2 2.816v2.184h2v-2.184c1.161-.414 2-1.514 2-2.816v-1c0-1.654-1.346-3-3-3-.551 0-1-.449-1-1v-1c0-.551.449-1 1-1s1 .449 1 1v1z"/></g><path d="m30 51v-4l-3.331-.512c-.235-.906-.591-1.761-1.055-2.549l1.992-2.717-2.828-2.828-2.717 1.992c-.787-.464-1.642-.82-2.549-1.055l-.512-3.331h-4l-.512 3.331c-.906.235-1.761.591-2.549 1.055l-2.717-1.992-2.828 2.828 1.992 2.717c-.464.787-.82 1.642-1.055 2.549l-3.331.512v4l3.331.512c.235.906.591 1.761 1.055 2.549l-1.992 2.717 2.828 2.828 2.717-1.992c.787.464 1.642.82 2.549 1.055l.512 3.331h4l.512-3.331c.906-.235 1.761-.591 2.549-1.055l2.717 1.992 2.828-2.828-1.992-2.717c.464-.787.82-1.642 1.055-2.549zm-13 4c-3.314 0-6-2.686-6-6s2.686-6 6-6 6 2.686 6 6-2.686 6-6 6z" fill="#61668c"/><path d="m1.868 19.991 2.565.342c.295 1.116.74 2.185 1.328 3.192l-1.576 2.06c-.304.398-.267.96.087 1.314l2.829 2.829c.354.354.916.392 1.314.087l2.06-1.576c1.007.587 2.076 1.032 3.192 1.328l.342 2.565c.066.497.49.868.991.868h4c.501 0 .925-.371.991-.868l.342-2.565c1.116-.295 2.185-.74 3.192-1.328l2.06 1.576c.399.305.961.268 1.314-.087l2.829-2.829c.354-.354.392-.917.087-1.314l-1.576-2.06c.587-1.007 1.032-2.076 1.328-3.192l2.565-.342c.497-.066.868-.49.868-.991v-4c0-.501-.371-.925-.868-.991l-2.565-.342c-.295-1.116-.74-2.185-1.328-3.192l1.576-2.06c.304-.398.267-.96-.087-1.314l-2.829-2.829c-.354-.354-.917-.392-1.314-.087l-2.06 1.576c-1.007-.587-2.076-1.032-3.192-1.328l-.342-2.565c-.066-.497-.49-.868-.991-.868h-4c-.501 0-.925.371-.991.868l-.342 2.565c-1.116.295-2.185.74-3.192 1.328l-2.06-1.576c-.397-.304-.96-.266-1.314.087l-2.829 2.829c-.355.354-.392.916-.087 1.314l1.576 2.06c-.587 1.007-1.032 2.076-1.328 3.192l-2.565.342c-.497.066-.868.49-.868.991v4c0 .501.371.925.868.991zm1.132-4.116 2.38-.317c.421-.056.761-.373.847-.79.278-1.352.811-2.632 1.582-3.803.234-.355.217-.819-.041-1.157l-1.463-1.912 1.59-1.59 1.913 1.463c.337.259.802.274 1.157.041 1.171-.771 2.451-1.304 3.803-1.582.417-.086.733-.426.79-.847l.317-2.381h2.249l.317 2.38c.056.421.373.761.79.847 1.352.278 2.632.811 3.803 1.582.356.233.82.218 1.157-.041l1.913-1.463 1.59 1.59-1.463 1.913c-.258.338-.275.802-.041 1.157.771 1.171 1.304 2.451 1.582 3.803.086.417.426.733.847.79l2.381.317v2.249l-2.38.317c-.421.056-.761.373-.847.79-.278 1.352-.811 2.632-1.582 3.803-.234.355-.217.819.041 1.157l1.463 1.913-1.59 1.59-1.913-1.463c-.338-.258-.803-.274-1.157-.041-1.171.771-2.451 1.304-3.803 1.582-.417.086-.733.426-.79.847l-.317 2.381h-2.249l-.317-2.38c-.056-.421-.373-.761-.79-.847-1.352-.278-2.632-.811-3.803-1.582-.355-.232-.819-.217-1.157.041l-1.913 1.463-1.59-1.59 1.463-1.913c.258-.338.275-.802.041-1.157-.771-1.171-1.304-2.451-1.582-3.803-.086-.417-.426-.733-.847-.79l-2.381-.317z"/><path d="m17 26c4.962 0 9-4.038 9-9s-4.038-9-9-9-9 4.038-9 9 4.038 9 9 9zm7-9c0 3.519-2.613 6.432-6 6.92v-1.104c1.161-.414 2-1.514 2-2.816v-1c0-1.654-1.346-3-3-3-.551 0-1-.449-1-1v-1c0-.551.449-1 1-1s1 .449 1 1v1h2v-1c0-1.302-.839-2.402-2-2.816v-1.104c3.387.488 6 3.401 6 6.92zm-8-6.92v1.104c-1.161.414-2 1.514-2 2.816v1c0 1.654 1.346 3 3 3 .551 0 1 .449 1 1v1c0 .551-.449 1-1 1s-1-.449-1-1v-1h-2v1c0 1.302.839 2.402 2 2.816v1.104c-3.387-.488-6-3.401-6-6.92s2.613-6.432 6-6.92z"/><path d="m62.132 33.009-2.565-.342c-.295-1.116-.74-2.185-1.328-3.192l1.576-2.06c.304-.398.267-.96-.087-1.314l-2.829-2.829c-.354-.354-.917-.392-1.314-.087l-2.06 1.576c-1.007-.587-2.076-1.032-3.192-1.328l-.342-2.565c-.066-.497-.49-.868-.991-.868h-4c-.501 0-.925.371-.991.868l-.342 2.565c-1.116.295-2.185.74-3.192 1.328l-2.06-1.576c-.398-.304-.96-.266-1.314.087l-2.829 2.829c-.354.354-.392.917-.087 1.314l1.576 2.06c-.587 1.007-1.032 2.076-1.328 3.192l-2.565.342c-.497.066-.868.49-.868.991v4c0 .501.371.925.868.991l2.565.342c.295 1.116.74 2.185 1.328 3.192l-1.576 2.06c-.304.398-.267.96.087 1.314l2.829 2.829c.354.353.916.391 1.314.087l2.06-1.576c1.007.587 2.076 1.032 3.192 1.328l.342 2.565c.066.497.49.868.991.868h4c.501 0 .925-.371.991-.868l.342-2.565c1.116-.295 2.185-.74 3.192-1.328l2.06 1.576c.399.305.961.267 1.314-.087l2.829-2.829c.354-.354.392-.917.087-1.314l-1.576-2.06c.587-1.007 1.032-2.076 1.328-3.192l2.565-.342c.497-.066.868-.49.868-.991v-4c0-.501-.371-.925-.868-.991zm-1.132 4.116-2.38.317c-.421.056-.761.373-.847.79-.278 1.352-.811 2.632-1.582 3.803-.234.355-.217.819.041 1.157l1.463 1.913-1.59 1.59-1.913-1.463c-.337-.259-.802-.274-1.157-.041-1.171.771-2.451 1.304-3.803 1.582-.417.086-.733.426-.79.847l-.317 2.38h-2.249l-.317-2.38c-.056-.421-.373-.761-.79-.847-1.352-.278-2.632-.811-3.803-1.582-.355-.232-.819-.216-1.157.041l-1.913 1.463-1.59-1.59 1.463-1.913c.258-.338.275-.802.041-1.157-.771-1.171-1.304-2.451-1.582-3.803-.086-.417-.426-.733-.847-.79l-2.381-.317v-2.249l2.38-.317c.421-.056.761-.373.847-.79.278-1.352.811-2.632 1.582-3.803.234-.355.217-.819-.041-1.157l-1.463-1.913 1.59-1.59 1.913 1.463c.337.257.803.275 1.157.041 1.171-.771 2.451-1.304 3.803-1.582.417-.086.733-.426.79-.847l.317-2.381h2.249l.317 2.38c.056.421.373.761.79.847 1.352.278 2.632.811 3.803 1.582.356.233.82.218 1.157-.041l1.913-1.463 1.59 1.59-1.463 1.913c-.258.338-.275.802-.041 1.157.771 1.171 1.304 2.451 1.582 3.803.086.417.426.733.847.79l2.381.317z"/><path d="m47 27c-4.962 0-9 4.038-9 9s4.038 9 9 9 9-4.038 9-9-4.038-9-9-9zm-7 9c0-3.519 2.613-6.432 6-6.92v1.104c-1.161.414-2 1.514-2 2.816v1c0 1.654 1.346 3 3 3 .551 0 1 .449 1 1v1c0 .551-.449 1-1 1s-1-.449-1-1v-1h-2v1c0 1.302.839 2.402 2 2.816v1.104c-3.387-.488-6-3.401-6-6.92zm8 6.92v-1.104c1.161-.414 2-1.514 2-2.816v-1c0-1.654-1.346-3-3-3-.551 0-1-.449-1-1v-1c0-.551.449-1 1-1s1 .449 1 1v1h2v-1c0-1.302-.839-2.402-2-2.816v-1.104c3.387.488 6 3.401 6 6.92s-2.613 6.432-6 6.92z"/><path d="m30.152 46.012-2.702-.416c-.177-.543-.395-1.071-.653-1.579l1.616-2.204c.292-.398.25-.949-.1-1.298l-2.828-2.828c-.349-.349-.899-.392-1.298-.1l-2.204 1.616c-.508-.258-1.035-.477-1.579-.653l-.416-2.702c-.075-.488-.494-.848-.988-.848h-4c-.494 0-.913.36-.988.848l-.416 2.702c-.543.177-1.071.395-1.579.653l-2.204-1.616c-.399-.292-.95-.249-1.298.1l-2.828 2.828c-.349.349-.391.9-.1 1.298l1.616 2.204c-.258.508-.477 1.035-.653 1.579l-2.702.416c-.488.075-.848.494-.848.988v4c0 .494.36.913.848.988l2.702.416c.177.543.395 1.071.653 1.579l-1.616 2.204c-.292.398-.25.949.1 1.298l2.828 2.828c.348.349.899.393 1.298.1l2.204-1.616c.508.258 1.035.477 1.579.653l.416 2.702c.075.488.494.848.988.848h4c.494 0 .913-.36.988-.848l.416-2.702c.543-.177 1.071-.395 1.579-.653l2.204 1.616c.399.293.95.249 1.298-.1l2.828-2.828c.349-.349.391-.9.1-1.298l-1.616-2.204c.258-.508.477-1.035.653-1.579l2.702-.416c.488-.075.848-.494.848-.988v-4c0-.494-.36-.913-.848-.988zm-1.152 4.13-2.483.382c-.395.061-.715.351-.816.737-.209.807-.528 1.578-.948 2.292-.203.344-.181.776.055 1.099l1.485 2.025-1.615 1.615-2.025-1.485c-.322-.236-.753-.257-1.099-.055-.714.42-1.485.739-2.292.948-.387.101-.677.421-.737.816l-.383 2.484h-2.284l-.382-2.483c-.061-.395-.351-.715-.737-.816-.807-.209-1.578-.528-2.292-.948-.345-.203-.777-.182-1.099.055l-2.025 1.485-1.615-1.615 1.485-2.025c.236-.322.258-.754.055-1.099-.42-.714-.739-1.485-.948-2.292-.101-.387-.421-.677-.816-.737l-2.484-.383v-2.284l2.483-.382c.395-.061.715-.351.816-.737.209-.807.528-1.578.948-2.292.203-.344.181-.776-.055-1.099l-1.485-2.025 1.615-1.615 2.025 1.485c.323.236.754.258 1.099.055.714-.42 1.485-.739 2.292-.948.387-.101.677-.421.737-.816l.383-2.484h2.284l.382 2.483c.061.395.351.715.737.816.807.209 1.578.528 2.292.948.344.202.776.18 1.099-.055l2.025-1.485 1.615 1.615-1.485 2.025c-.236.322-.258.754-.055 1.099.42.714.739 1.485.948 2.292.101.387.421.677.816.737l2.484.383z"/><path d="m17 42c-3.86 0-7 3.14-7 7s3.14 7 7 7 7-3.14 7-7-3.14-7-7-7zm0 12c-2.757 0-5-2.243-5-5s2.243-5 5-5 5 2.243 5 5-2.243 5-5 5z"/></g></svg>