<svg id="Layer_1" enable-background="new 0 0 256 256" height="512" viewBox="0 0 256 256" width="512" xmlns="http://www.w3.org/2000/svg"><g><g fill="#f9b087"><path d="m81.47 112.484c-.041 0-.083-.001-.124-.003-.706-.035-1.363-.367-1.811-.914l-3.317-4.054c-.875-1.068-.717-2.644.352-3.518 1.065-.874 2.642-.719 3.518.352l1.568 1.916 5.234-5.233c.977-.977 2.559-.977 3.535 0s.977 2.56 0 3.535l-7.188 7.187c-.469.47-1.106.732-1.767.732z"/><path d="m81.47 153.02c-.041 0-.083-.001-.125-.003-.705-.035-1.362-.367-1.81-.914l-3.317-4.055c-.875-1.068-.717-2.644.352-3.518 1.067-.876 2.642-.719 3.518.352l1.568 1.917 5.234-5.234c.977-.977 2.559-.977 3.535 0s.977 2.559 0 3.535l-7.188 7.188c-.469.469-1.106.732-1.767.732z"/><path d="m81.47 193.554c-.041 0-.083-.001-.124-.003-.706-.035-1.363-.367-1.811-.914l-3.317-4.054c-.875-1.068-.717-2.644.352-3.518 1.065-.874 2.642-.72 3.518.352l1.568 1.916 5.234-5.233c.977-.977 2.559-.977 3.535 0s.977 2.56 0 3.535l-7.188 7.187c-.469.469-1.106.732-1.767.732z"/><path d="m155.686 66.009h-94.706c-1.381 0-2.5-1.119-2.5-2.5s1.119-2.5 2.5-2.5h94.705c1.381 0 2.5 1.119 2.5 2.5s-1.119 2.5-2.499 2.5z"/><path d="m171.626 164.24c-.452 0-.91-.122-1.321-.379-1.172-.731-1.528-2.273-.798-3.444l6.952-11.14h-10.034c-.905 0-1.739-.489-2.182-1.278-.441-.79-.423-1.757.051-2.528l8.915-14.54c.723-1.177 2.264-1.545 3.438-.824 1.177.722 1.546 2.261.824 3.438l-6.58 10.733h10.075c.908 0 1.745.493 2.187 1.287.44.795.415 1.766-.065 2.536l-9.338 14.963c-.476.759-1.29 1.176-2.124 1.176z"/></g><g fill="#846f75"><path d="m173.695 193.575c-1.381 0-2.5 1.119-2.5 2.5v29.103h-125.723v-170.871h125.724v43.102c0 1.381 1.119 2.5 2.5 2.5s2.5-1.119 2.5-2.5v-45.602c0-1.381-1.119-2.5-2.5-2.5h-130.724c-1.381 0-2.5 1.119-2.5 2.5v175.871c0 1.381 1.119 2.5 2.5 2.5h130.724c1.381 0 2.5-1.119 2.5-2.5v-31.603c-.001-1.381-1.12-2.5-2.501-2.5z"/><path d="m98.636 93.151c0-1.381-1.119-2.5-2.5-2.5h-26.112c-1.381 0-2.5 1.119-2.5 2.5v26.111c0 1.381 1.119 2.5 2.5 2.5h26.111c1.381 0 2.5-1.119 2.5-2.5v-26.111zm-5 23.612h-21.112v-21.112h21.111v21.112z"/><path d="m149.142 106.207c0-1.381-1.119-2.5-2.5-2.5h-36.5c-1.381 0-2.5 1.119-2.5 2.5s1.119 2.5 2.5 2.5h36.5c1.38 0 2.5-1.119 2.5-2.5z"/><path d="m98.636 133.687c0-1.381-1.119-2.5-2.5-2.5h-26.112c-1.381 0-2.5 1.119-2.5 2.5v26.111c0 1.381 1.119 2.5 2.5 2.5h26.111c1.381 0 2.5-1.119 2.5-2.5v-26.111zm-5 23.611h-21.112v-21.111h21.111v21.111z"/><path d="m123.045 144.242h-12.903c-1.381 0-2.5 1.119-2.5 2.5s1.119 2.5 2.5 2.5h12.903c1.381 0 2.5-1.119 2.5-2.5s-1.119-2.5-2.5-2.5z"/><path d="m96.136 171.721h-26.112c-1.381 0-2.5 1.119-2.5 2.5v26.111c0 1.381 1.119 2.5 2.5 2.5h26.111c1.381 0 2.5-1.119 2.5-2.5v-26.111c.001-1.381-1.118-2.5-2.499-2.5zm-2.5 26.111h-21.112v-21.111h21.111v21.111z"/><path d="m107.642 187.276c0 1.381 1.119 2.5 2.5 2.5h36.5c1.381 0 2.5-1.119 2.5-2.5s-1.119-2.5-2.5-2.5h-36.5c-1.381 0-2.5 1.12-2.5 2.5z"/><path d="m210.92 136.647c-.001-.001-.002-.001-.003-.001l-7.922-2.042 4.159-7.045c1.423-2.416 1.032-5.488-.951-7.472l-5.854-5.854c-1.98-1.981-5.055-2.374-7.472-.951l-7.045 4.158-2.042-7.925c-.704-2.713-3.152-4.608-5.955-4.608h-8.279c-2.804 0-5.252 1.896-5.955 4.612l-2.042 7.921-7.047-4.16c-2.418-1.42-5.488-1.029-7.47.953l-5.854 5.854c-1.982 1.982-2.373 5.054-.95 7.473l4.158 7.044-7.925 2.043c-2.713.702-4.608 3.151-4.608 5.955v8.278c0 2.804 1.896 5.253 4.611 5.956l7.922 2.041-4.16 7.048c-1.421 2.417-1.029 5.488.952 7.47l5.855 5.855c1.982 1.98 5.055 2.368 7.472.949l7.044-4.158 2.043 7.923c.702 2.715 3.15 4.61 5.954 4.61h8.279c2.803 0 5.251-1.896 5.956-4.612l2.041-7.921 7.048 4.159c2.413 1.42 5.485 1.032 7.469-.951l5.854-5.854c1.982-1.982 2.374-5.055.95-7.473l-4.158-7.045 7.925-2.042c2.713-.702 4.608-3.151 4.608-5.955v-8.278c0-2.803-1.895-5.252-4.608-5.955zm-.392 14.234c0 .525-.354.983-.859 1.114l-11.141 2.87c-.761.196-1.385.738-1.686 1.464-.301.727-.243 1.551.156 2.228l5.847 9.905c.267.452.193 1.027-.178 1.398l-5.854 5.854c-.372.371-.946.444-1.396.18l-9.907-5.848c-.677-.398-1.502-.456-2.228-.156-.726.301-1.268.925-1.464 1.686l-2.869 11.136c-.132.509-.591.864-1.115.864h-8.279c-.524 0-.982-.354-1.113-.86l-2.871-11.14c-.196-.761-.738-1.385-1.464-1.686-.308-.128-.633-.19-.957-.19-.441 0-.881.117-1.271.347l-9.903 5.846c-.451.267-1.028.194-1.399-.177l-5.854-5.854c-.371-.371-.443-.946-.179-1.396l5.848-9.907c.399-.677.457-1.501.156-2.228-.301-.726-.925-1.268-1.686-1.464l-11.138-2.869c-.508-.132-.862-.59-.862-1.115v-8.278c0-.525.354-.983.859-1.114l11.141-2.871c.761-.196 1.385-.738 1.686-1.464.301-.727.243-1.552-.156-2.228l-5.847-9.904c-.267-.452-.193-1.027.178-1.398l5.854-5.854c.371-.372.946-.445 1.396-.18l9.906 5.848c.675.397 1.501.455 2.228.156.726-.301 1.268-.925 1.464-1.686l2.87-11.138c.132-.508.59-.862 1.114-.862h8.279c.524 0 .983.355 1.114.86l2.87 11.14c.196.761.738 1.385 1.464 1.686.727.303 1.552.242 2.228-.156l9.905-5.847c.45-.266 1.025-.191 1.397.179l5.854 5.854c.371.371.444.946.179 1.396l-5.848 9.906c-.399.676-.457 1.501-.156 2.228.301.726.925 1.268 1.686 1.464l11.141 2.871c.506.133.859.59.859 1.114v8.276z"/><path d="m76.554 46.226c1.381 0 2.5-1.119 2.5-2.5v-5.403c0-4.136 3.364-7.5 7.5-7.5h43.56c4.136 0 7.5 3.364 7.5 7.5v5.403c0 1.381 1.119 2.5 2.5 2.5s2.5-1.119 2.5-2.5v-5.403c0-6.893-5.607-12.5-12.5-12.5h-43.56c-6.893 0-12.5 5.607-12.5 12.5v5.403c0 1.38 1.119 2.5 2.5 2.5z"/></g></g></svg>